<svg xmlns="http://www.w3.org/2000/svg" version="1.1" xmlns:xlink="http://www.w3.org/1999/xlink" xmlns:svgjs="http://svgjs.dev/svgjs" viewBox="0 0 800 800" opacity="0.27"><defs><linearGradient x1="50%" y1="0%" x2="50%" y2="100%" id="gggyrate-grad"><stop stop-color="hsl(180, 69%, 40%)" stop-opacity="1" offset="0%"></stop><stop stop-color="hsl(180, 69%, 60%)" stop-opacity="1" offset="100%"></stop></linearGradient></defs><g stroke-width="5" stroke="url(#gggyrate-grad)" fill="none"><path d="M350.0399958503027 -320.5576945836282C380.95522753385796 -338.40339716502115 419.0447114309858 -338.40339716502115 449.95994311454103 -320.5526985862649L999.0400373209839 -3.5416778983791346C1029.955269004539 14.304024683013836 1049.0000109531031 47.29259527230215 1049.0000109531031 82.98899643245159V717.0110378082231C1049.0000109531031 752.7074389683726 1029.955269004539 785.696009557661 999.0400373209839 803.5467081364168L449.95994311454103 1120.5577288243028C419.0447114309858 1138.4034314056958 380.95522753385796 1138.4034314056958 350.0399958503027 1120.5527328269395L-199.04009835614016 803.5417121390537C-229.95533003969547 785.696009557661 -249.00007198825932 752.7074389683726 -249.00007198825932 717.0110378082231V82.98899643245159C-249.00007198825932 47.29259527230215 -229.95533003969547 14.304024683013836 -199.04009835614016 -3.5466738957422876L350.0399958503027 -320.5576945836282Z " transform="rotate(44, 400, 400)" opacity="0.05"></path><path d="M352.3109037426717 -287.80507903836735C381.820897622429 -304.83961332060613 418.17904134241473 -304.83961332060613 447.68903522217204 -287.80031013179337L971.8109433283219 14.801118706643138C1001.3209372080792 31.83565298888186 1019.5000090680721 63.324743096838915 1019.5000090680721 97.39858056789058V702.6014382447634C1019.5000090680721 736.6752757158151 1001.3209372080792 768.1643658237722 971.8109433283219 785.2036690125849L447.68903522217204 1087.8050978510214C418.17904134241473 1104.8396321332602 381.820897622429 1104.8396321332602 352.3109037426717 1087.8003289444475L-171.81100436347822 785.198900106011C-201.32099824323558 768.1643658237722 -219.50007010322838 736.6752757158151 -219.50007010322838 702.6014382447634V97.39858056789058C-219.50007010322838 63.324743096838915 -201.32099824323558 31.83565298888186 -171.81100436347822 14.796349800069265L352.3109037426717 -287.80507903836735Z " transform="rotate(42, 400, 400)" opacity="0.10"></path><path d="M354.5818116350408 -255.0524634931066C382.6865677110002 -271.2758294761911 417.31337125384357 -271.2758294761911 445.4181273298029 -255.04792167732182L944.5818493356601 33.143915311665296C972.6866054116194 49.36728129474977 990.0000071830411 79.35689092137557 990.0000071830411 111.80816470332957V688.1918386813036C990.0000071830411 720.6431124632577 972.6866054116194 750.6327220898834 944.5818493356601 766.8606298887528L445.4181273298029 1055.0524668777398C417.31337125384357 1071.2758328608243 382.6865677110002 1071.2758328608243 354.5818116350408 1055.047925061955L-144.58191037081633 766.8560880729679C-172.6866664467757 750.6327220898834 -190.00006821819744 720.6431124632577 -190.00006821819744 688.1918386813036V111.80816470332957C-190.00006821819744 79.35689092137557 -172.6866664467757 49.36728129474977 -144.58191037081633 33.13937349588059L354.5818116350408 -255.0524634931066Z " transform="rotate(40, 400, 400)" opacity="0.14"></path><path d="M356.8527195274098 -222.29984794784576C383.55223779957123 -237.71204563177608 416.4477011652725 -237.71204563177608 443.14721943743393 -222.29553322285022L917.3527553429983 51.486711916687455C944.0522736151595 66.8989096006178 960.5000052980104 95.38903874591233 960.5000052980104 126.21774883876856V673.782239117844C960.5000052980104 704.6109492107003 944.0522736151595 733.1010783559948 917.3527553429983 748.5175907649204L443.14721943743393 1022.2998359044584C416.4477011652725 1037.7120335883885 383.55223779957123 1037.7120335883885 356.8527195274098 1022.2955211794629L-117.35281637815444 748.5132760399251C-144.0523346503158 733.1010783559948 -160.50006633316644 704.6109492107003 -160.50006633316644 673.782239117844V126.21774883876856C-160.50006633316644 95.38903874591233 -144.0523346503158 66.8989096006178 -117.35281637815444 51.482397191692144L356.8527195274098 -222.29984794784576Z " transform="rotate(38, 400, 400)" opacity="0.19"></path><path d="M359.1236274197788 -189.54724766137406C384.4179078881423 -204.14827704615013 415.58203107670147 -204.14827704615013 440.8763115450648 -189.54316002716774L890.1236613503363 69.82949326292066C915.4179418186995 84.43052264769676 931.0000034129794 111.42117131165992 931.0000034129794 140.62731771541849V659.3726242955952C931.0000034129794 688.5787706993538 915.4179418186995 715.5694193633171 890.1236613503363 730.1745363822993L440.8763115450648 989.5471896723875C415.58203107670147 1004.1482190571637 384.4179078881423 1004.1482190571637 359.1236274197788 989.5431020381816L-90.1237223854925 730.1704487480929C-115.41800285385591 715.5694193633171 -131.0000644481355 688.5787706993538 -131.0000644481355 659.3726242955952V140.62731771541849C-131.0000644481355 111.42117131165992 -115.41800285385591 84.43052264769676 -90.1237223854925 69.8254056287144L359.1236274197788 -189.54724766137406Z " transform="rotate(36, 400, 400)" opacity="0.23"></path><path d="M361.3945353121479 -156.79463211611323C385.28357797671333 -170.58449320173509 414.7163609881303 -170.58449320173509 438.6054036526958 -156.7907715726962L862.8945673576743 88.17228986794282C886.7836100222398 101.96215095356479 901.5000015279484 127.45331913619657 901.5000015279484 155.03690185085748V644.9630247321356C901.5000015279484 672.5466074467963 886.7836100222398 698.0377756294283 862.8945673576743 711.8314972584672L438.6054036526958 956.7945586991061C414.7163609881303 970.584419784728 385.28357797671333 970.584419784728 361.3945353121479 956.7906981556894L-62.89462839283061 711.8276367150502C-86.78367105739608 698.0377756294283 -101.5000625631045 672.5466074467963 -101.5000625631045 644.9630247321356V155.03690185085748C-101.5000625631045 127.45331913619657 -86.78367105739608 101.96215095356479 -62.89462839283061 88.1684293245259L361.3945353121479 -156.79463211611323Z " transform="rotate(34, 400, 400)" opacity="0.28"></path><path d="M363.66544320451703 -124.04195553569622C386.1492480652845 -137.02064832216382 413.85069089955925 -137.02064832216382 436.3344957603267 -124.03832208306841L835.6654733650125 106.51514750812129C858.1492782257801 119.49384029458895 871.9999996429174 143.48552799588947 871.9999996429174 169.44654702145272V630.553486203832C871.9999996429174 656.5145052293951 858.1492782257801 680.5061929306958 835.6654733650125 693.4885191697913L436.3344957603267 924.0419887609808C413.85069089955925 937.0206815474482 386.1492480652845 937.0206815474482 363.66544320451703 924.0383553083532L-35.66553440016867 693.4848857171635C-58.14933926093619 680.5061929306958 -72.00006067807357 656.5145052293951 -72.00006067807357 630.553486203832V169.44654702145272C-72.00006067807357 143.48552799588947 -58.14933926093619 119.49384029458895 -35.66553440016867 106.51151405549359L363.66544320451703 -124.04195553569622Z " transform="rotate(32, 400, 400)" opacity="0.32"></path><path d="M365.936351096886 -91.2893399904354C387.01491815385566 -103.45686447774881 412.9850208109881 -103.45686447774881 434.0635878679577 -91.28593362859681L808.4363793723505 124.8579441131435C829.5149464293199 137.02546860045686 842.4999977578864 159.51767582042623 842.4999977578864 183.8561311568917V616.1438866403723C842.4999977578864 640.4823419768377 829.5149464293199 662.9745491968071 808.4363793723505 675.145480045959L434.0635878679577 891.2893577876991C412.9850208109881 903.4568822750125 387.01491815385566 903.4568822750125 365.936351096886 891.2859514258607L-8.43644040750678 675.1420736841205C-29.515007464476298 662.9745491968071 -42.50005879304257 640.4823419768377 -42.50005879304257 616.1438866403723V183.8561311568917C-42.50005879304257 159.51767582042623 -29.515007464476298 137.02546860045686 -8.43644040750678 124.85453775130497L365.936351096886 -91.2893399904354Z " transform="rotate(30, 400, 400)" opacity="0.37"></path><path d="M368.20725898925514 -58.53672444517457C387.8805882424267 -69.89308063333377 412.11935072241704 -69.89308063333377 431.7926799755886 -58.533545174125265L781.2072853796885 143.20074071816566C800.8806146328602 154.5570969063249 812.9999958728554 175.54982364496294 812.9999958728554 198.2657152923307V601.7342870769127C812.9999958728554 624.4501787242804 800.8806146328602 645.4429054629184 781.2072853796885 656.8024409221268L431.7926799755886 858.5367268144178C412.11935072241704 869.893083002577 387.8805882424267 869.893083002577 368.20725898925514 858.5335475433685L18.792653585155108 656.7992616510776C-0.8806756680164085 645.4429054629184 -13.00005690801163 624.4501787242804 -13.00005690801163 601.7342870769127V198.2657152923307C-13.00005690801163 175.54982364496294 -0.8806756680164085 154.5570969063249 18.792653585155108 143.19756144711647L368.20725898925514 -58.53672444517457Z " transform="rotate(28, 400, 400)" opacity="0.41"></path><path d="M370.47816688162425 -25.784047864757554C388.74625833099776 -36.329235753762504 411.253680633846 -36.329235753762504 429.5217720832195 -25.781095684497473L753.9781913870266 161.54359835834418C772.2462828364003 172.0887862473491 783.4999939878244 191.58203250465584 783.4999939878244 212.67536046292594V587.3247485486091C783.4999939878244 608.4180765068792 772.2462828364003 627.9113227641859 753.9781913870266 638.459462833451L429.5217720832195 825.7841568762924C411.253680633846 836.3293447652975 388.74625833099776 836.3293447652975 370.47816688162425 825.7812046960325L46.02174757781705 638.4565106531909C27.75365612844348 627.9113227641859 16.49994497701931 608.4180765068792 16.49994497701931 587.3247485486091V212.67536046292594C16.49994497701931 191.58203250465584 27.75365612844348 172.0887862473491 46.02174757781705 161.5406461780841L370.47816688162425 -25.784047864757554Z " transform="rotate(26, 400, 400)" opacity="0.46"></path><path d="M372.74910529157137 6.96850664534702C389.61195893714694 -2.765512944503712 410.38804106285306 -2.765512944503712 427.25089470842863 6.971231734817877L726.749127911943 179.8863339282101C743.6119815575186 189.62035351806082 754.0000226203716 207.6141192940363 754.0000226203716 227.08488356320868V572.9150879499932C754.0000226203716 592.3858522191656 743.6119815575186 610.379617995141 726.749127911943 620.1163626744625L427.25089470842863 793.0314648678548C410.38804106285306 802.7654844577055 389.61195893714694 802.7654844577055 372.74910529157137 793.0287397783841L73.25087208805706 620.1136375849917C56.38801844248144 610.379617995141 45.99997737962843 592.3858522191656 45.99997737962843 572.9150879499932V227.08488356320868C45.99997737962843 207.6141192940363 56.38801844248144 189.62035351806082 73.25087208805706 179.8836088387393L372.74910529157137 6.96850664534702Z " transform="rotate(24, 400, 400)" opacity="0.50"></path><path d="M375.02001318394036 39.72115270818591C390.477629025718 30.798301417489427 409.522370974282 30.798301417489427 424.97998681605964 39.723650706867545L699.520033919281 198.22916105081043C714.9776497610586 207.15201234150692 724.5000207353406 223.64629763615108 724.5000207353406 241.4944982162258V558.5055189041116C724.5000207353406 576.3537194841863 714.9776497610586 592.8480047788305 699.520033919281 601.7733540682084L424.97998681605964 760.2788644121514C409.522370974282 769.2017157028479 390.477629025718 769.2017157028479 375.02001318394036 760.2763664134698L100.47996608071901 601.7708560695269C85.02235023894133 592.8480047788305 75.49997926465937 576.3537194841863 75.49997926465937 558.5055189041116V241.4944982162258C75.49997926465937 223.64629763615108 85.02235023894133 207.15201234150692 100.47996608071901 198.22666305212886L375.02001318394036 39.72115270818591Z " transform="rotate(22, 400, 400)" opacity="0.55"></path><path d="M377.2909210763095 72.47376825344674C391.34329911428915 64.36208526190444 408.65670088571085 64.36208526190444 422.7090789236905 72.47603916133909L672.2909399266191 216.57195765583265C686.3433179645988 224.6836406473749 695.0000188503096 239.67844546068778 695.0000188503096 255.90408235166478V544.0959193406518C695.0000188503096 560.3215562316288 686.3433179645988 575.3163610449417 672.2909399266191 583.4303149443764L422.7090789236905 727.5262334388699C408.65670088571085 735.6379164304121 391.34329911428915 735.6379164304121 377.2909210763095 727.5239625309775L127.7090600733809 583.4280440364839C113.65668203540122 575.3163610449417 104.99998114969037 560.3215562316288 104.99998114969037 544.0959193406518V255.90408235166478C104.99998114969037 239.67844546068778 113.65668203540122 224.6836406473749 127.7090600733809 216.5696867479403L377.2909210763095 72.47376825344674Z " transform="rotate(20, 400, 400)" opacity="0.59"></path><path d="M379.56182896867847 105.2263837987075C392.2089692028602 97.92586910631948 407.7910307971398 97.92586910631948 420.4381710313214 105.22842761581063L645.0618459339572 234.91475426085486C657.7089861681388 242.2152689532429 665.5000169652787 255.7105932852245 665.5000169652787 270.3136664871038V529.6863197771921C665.5000169652787 544.2893929790714 657.7089861681388 557.7847173110531 645.0618459339572 565.0872758205442L420.4381710313214 694.7736024655883C407.7910307971398 702.0741171579764 392.2089692028602 702.0741171579764 379.56182896867847 694.7715586484853L154.93815406604278 565.085232003441C142.2910138318611 557.7847173110531 134.4999830347213 544.2893929790714 134.4999830347213 529.6863197771921V270.3136664871038C134.4999830347213 255.7105932852245 142.2910138318611 242.2152689532429 154.93815406604278 234.91271044375173L379.56182896867847 105.2263837987075Z " transform="rotate(18, 400, 400)" opacity="0.64"></path><path d="M381.8327368610476 137.97899934396833C393.0746392914313 131.4896529507345 406.92536070856863 131.4896529507345 418.1672631389524 137.98081607028223L617.8327519412953 253.25755086587708C629.0746543716791 259.7468972591109 636.0000150802477 271.74274110976114 636.0000150802477 284.72325062254276V515.2767202137325C636.0000150802477 528.257229726514 629.0746543716791 540.2530735771643 617.8327519412953 546.744236696712L418.1672631389524 662.0209714923068C406.92536070856863 668.5103178855405 393.0746392914313 668.5103178855405 381.8327368610476 662.019154765993L182.16724805870473 546.7424199703981C170.925345628321 540.2530735771643 163.9999849197523 528.257229726514 163.9999849197523 515.2767202137325V284.72325062254276C163.9999849197523 271.74274110976114 170.925345628321 259.7468972591109 182.16724805870473 253.25573413956317L381.8327368610476 137.97899934396833Z " transform="rotate(16, 400, 400)" opacity="0.68"></path><path d="M384.10364475341663 170.73164540680722C393.9403093800024 165.05346731272763 406.0596906199976 165.05346731272763 415.89635524658337 170.7332350423319L590.6036579486333 271.60037798847736C600.4403225752192 277.278556082557 606.5000131952168 287.77491945187603 606.5000131952168 299.1328652755599V500.8671511678508C606.5000131952168 512.2250969915347 600.4403225752192 522.7214603608537 590.6036579486333 528.401228090458L415.89635524658337 629.2683710366034C406.0596906199976 634.946549130683 393.9403093800024 634.946549130683 384.10364475341663 629.2667814010788L209.39634205136662 528.3996384549333C199.55967742478083 522.7214603608537 193.49998680478325 512.2250969915347 193.49998680478325 500.8671511678508V299.1328652755599C193.49998680478325 287.77491945187603 199.55967742478083 277.278556082557 209.39634205136662 271.59878835295274L384.10364475341663 170.73164540680722Z " transform="rotate(14, 400, 400)" opacity="0.73"></path><path d="M386.3745526457857 203.48426095206804C394.80597946857347 198.61725115714268 405.19402053142653 198.61725115714268 413.6254473542143 203.48562349680344L563.3745639559716 289.9431745934996C571.8059907787592 294.81018438842494 577.0000113101858 303.8070672764127 577.0000113101858 313.54244941099887V486.45755160439114C577.0000113101858 496.19293373897733 571.8059907787592 505.189816626965 563.3745639559716 510.0581889666257L413.6254473542143 596.5157400633219C405.19402053142653 601.3827498582473 394.80597946857347 601.3827498582473 386.3745526457857 596.5143775185866L236.62543604402856 510.0568264218904C228.19400922124072 505.189816626965 222.9999886898142 496.19293373897733 222.9999886898142 486.45755160439114V313.54244941099887C222.9999886898142 303.8070672764127 228.19400922124072 294.81018438842494 236.62543604402856 289.9418120487642L386.3745526457857 203.48426095206804Z " transform="rotate(12, 400, 400)" opacity="0.77"></path><path d="M388.64546053815474 236.2368764973288C395.6716495571446 232.1810350015577 404.3283504428554 232.1810350015577 411.35453946184526 236.23801195127504L536.1454699633096 308.2859711985218C543.1716589822994 312.3418126942929 547.5000094251548 319.83921510094933 547.5000094251548 327.95203354643786V472.04795204093136C547.5000094251548 480.1607704864199 543.1716589822994 487.6581728930763 536.1454699633096 491.71514984279366L411.35453946184526 563.7631090900404C404.3283504428554 567.8189505858115 395.6716495571446 567.8189505858115 388.64546053815474 563.7619736360942L263.85453003669045 491.71401438884743C256.8283410177006 487.6581728930763 252.49999057484519 480.1607704864199 252.49999057484519 472.04795204093136V327.95203354643786C252.49999057484519 319.83921510094933 256.8283410177006 312.3418126942929 263.85453003669045 308.2848357445756L388.64546053815474 236.2368764973288Z " transform="rotate(10, 400, 400)" opacity="0.82"></path><path d="M390.9163684305238 268.98952256016776C396.5373196457157 265.7448493635509 403.4626803542843 265.7448493635509 409.0836315694762 268.9904309233247L508.91637597064766 326.62879832112213C514.5373271858396 329.873471517739 518.0000075401239 335.87139344306416 518.0000075401239 342.361648199455V457.6383829950498C518.0000075401239 464.1286377514406 514.5373271858396 470.12655967676574 508.91637597064766 473.3721412365396L409.0836315694762 531.0105086343369C403.4626803542843 534.2551818309539 396.5373196457157 534.2551818309539 390.9163684305238 531.00960027118L291.08362402935234 473.37123287338267C285.4626728141605 470.12655967676574 281.9999924598761 464.1286377514406 281.9999924598761 457.6383829950498V342.361648199455C281.9999924598761 335.87139344306416 285.4626728141605 329.873471517739 291.08362402935234 326.6278899579652L390.9163684305238 268.98952256016776Z " transform="rotate(8, 400, 400)" opacity="0.86"></path><path d="M393.18727632289284 301.74213047603405C397.40298973428673 299.3086255785713 402.59701026571327 299.3086255785713 406.81272367710716 301.7428117484017L481.6872819779858 344.9715872967498C485.9029953893796 347.40509219421244 488.5000056550929 351.90353363820634 488.5000056550929 356.77122470549944V443.22877580219557C488.5000056550929 448.09646686948867 485.9029953893796 452.5949083134825 481.6872819779858 455.02909448331286L406.81272367710716 498.25787003166096C402.59701026571327 500.69137492912364 397.40298973428673 500.69137492912364 393.18727632289284 498.2571887592933L318.3127180220143 455.0284132109452C314.0970046106204 452.5949083134825 311.4999943449071 448.09646686948867 311.4999943449071 443.22877580219557V356.77122470549944C311.4999943449071 351.90353363820634 314.0970046106204 347.40509219421244 318.3127180220143 344.9709060243821L393.18727632289284 301.74213047603405Z " transform="rotate(6, 400, 400)" opacity="0.91"></path><path d="M395.4581842152619 334.4947460212948C398.26865982285784 332.8724094229864 401.73134017714216 332.8724094229864 404.5418157847381 334.4952002028733L454.45818798532383 363.314383901772C457.2686635929198 364.93672050008047 459.00000377006194 367.93568146274305 459.00000377006194 371.1808088409384V428.81917623873585C459.00000377006194 432.0643036169312 457.2686635929198 435.0632645795938 454.45818798532383 436.68605535948075L404.5418157847381 465.5052390583794C401.73134017714216 467.1275756566879 398.26865982285784 467.1275756566879 395.4581842152619 465.50478487680095L345.54181201467617 436.6856011779023C342.7313364070802 435.0632645795938 340.99999622993806 432.0643036169312 340.99999622993806 428.81917623873585V371.1808088409384C340.99999622993806 367.93568146274305 342.7313364070802 364.93672050008047 345.54181201467617 363.3139297201935L395.4581842152619 334.4947460212948Z " transform="rotate(4, 400, 400)" opacity="0.95"></path><path d="M397.72909210763095 367.24737682534465C399.1343299114289 366.43620852619046 400.8656700885711 366.43620852619046 402.27090789236905 367.2476039161339L427.2290939926619 381.65719576558325C428.6343317964599 382.4683640647375 429.50000188503094 383.96784454606876 429.50000188503094 385.5904082351665V414.4095919340652C429.50000188503094 416.0321556231629 428.6343317964599 417.53163610449417 427.2290939926619 418.34303149443764L402.27090789236905 432.75262334388697C400.8656700885711 433.5637916430412 399.1343299114289 433.5637916430412 397.72909210763095 432.75239625309774L372.7709060073381 418.3428044036484C371.3656682035401 417.53163610449417 370.49999811496906 416.0321556231629 370.49999811496906 414.4095919340652V385.5904082351665C370.49999811496906 383.96784454606876 371.3656682035401 382.4683640647375 372.7709060073381 381.65696867479403L397.72909210763095 367.24737682534465Z " transform="rotate(2, 400, 400)" opacity="1.00"></path></g></svg>